{
  "accessors": [
    {
      "bufferView": 2,
      "componentType": 5126,
      "count": 56,
      "max": [
        1.1000000238418579,
        1.1000000238418579,
        0.125
      ],
      "min": [
        -1.1000000238418579,
        -1.1000000238418579,
        0
      ],
      "type": "VEC3"
    },
    {
      "bufferView": 2,
      "byteOffset": 672,
      "componentType": 5126,
      "count": 56,
      "max": [
        1,
        1,
        1
      ],
      "min": [
        -1,
        -1,
        -1
      ],
      "type": "VEC3"
    },
    {
      "bufferView": 3,
      "componentType": 5126,
      "count": 56,
      "max": [
        1,
        0.00035821605706587434,
        1,
        1
      ],
      "min": [
        -1,
        -1,
        -1,
        1
      ],
      "type": "VEC4"
    },
    {
      "bufferView": 1,
      "componentType": 5126,
      "count": 56,
      "max": [
        0.89440017938613892,
        0.84904056787490845
      ],
      "min": [
        0.0040075704455375671,
        0.0040114112198352814
      ],
      "type": "VEC2"
    },
    {
      "bufferView": 0,
      "componentType": 5125,
      "count": 84,
      "max": [
        55
      ],
      "min": [
        0
      ],
      "type": "SCALAR"
    },
    {
      "bufferView": 2,
      "byteOffset": 1344,
      "componentType": 5126,
      "count": 304,
      "max": [
        0.20060174167156219,
        0.14996011555194855,
        0.81096464395523071
      ],
      "min": [
        -0.19957002997398376,
        -0.15003986656665802,
        0.79765778779983521
      ],
      "type": "VEC3"
    },
    {
      "bufferView": 2,
      "byteOffset": 4992,
      "componentType": 5126,
      "count": 304,
      "max": [
        0.80394524335861206,
        0.89061951637268066,
        0.74317127466201782
      ],
      "min": [
        -0.80494230985641479,
        -0.72297114133834839,
        -0.99342805147171021
      ],
      "type": "VEC3"
    },
    {
      "bufferView": 3,
      "byteOffset": 896,
      "componentType": 5126,
      "count": 304,
      "max": [
        0.92897671461105347,
        0.95646345615386963,
        0.73976469039916992,
        1
      ],
      "min": [
        -0.92066609859466553,
        -0.99998152256011963,
        -0.89077860116958618,
        1
      ],
      "type": "VEC4"
    },
    {
      "bufferView": 1,
      "byteOffset": 448,
      "componentType": 5126,
      "count": 304,
      "max": [
        0.86079412698745728,
        0.86801350116729736
      ],
      "min": [
        0.061234474182128906,
        0.24853301048278809
      ],
      "type": "VEC2"
    },
    {
      "bufferView": 0,
      "byteOffset": 336,
      "componentType": 5125,
      "count": 858,
      "max": [
        303
      ],
      "min": [
        0
      ],
      "type": "SCALAR"
    },
    {
      "bufferView": 2,
      "byteOffset": 8640,
      "componentType": 5126,
      "count": 620,
      "max": [
        0.13090252876281738,
        0.10656023025512695,
        0.91362988948822021
      ],
      "min": [
        -0.12990450859069824,
        -0.074050702154636383,
        0.80362987518310547
      ],
      "type": "VEC3"
    },
    {
      "bufferView": 2,
      "byteOffset": 16080,
      "componentType": 5126,
      "count": 620,
      "max": [
        0.98491376638412476,
        0.99204570055007935,
        0.99656969308853149
      ],
      "min": [
        -0.98490917682647705,
        -0.99204570055007935,
        -0.38353559374809265
      ],
      "type": "VEC3"
    },
    {
      "bufferView": 3,
      "byteOffset": 5760,
      "componentType": 5126,
      "count": 620,
      "max": [
        0.7541576623916626,
        0.99710237979888916,
        0.98309981822967529,
        1
      ],
      "min": [
        -0.99919170141220093,
        -0.99851197004318237,
        -0.98994481563568115,
        1
      ],
      "type": "VEC4"
    },
    {
      "bufferView": 1,
      "byteOffset": 2880,
      "componentType": 5126,
      "count": 620,
      "max": [
        0.96786826848983765,
        0.98571169376373291
      ],
      "min": [
        0.13786041736602783,
        0.0040114112198352814
      ],
      "type": "VEC2"
    },
    {
      "bufferView": 0,
      "byteOffset": 3768,
      "componentType": 5125,
      "count": 2574,
      "max": [
        619
      ],
      "min": [
        0
      ],
      "type": "SCALAR"
    },
    {
      "bufferView": 2,
      "byteOffset": 23520,
      "componentType": 5126,
      "count": 310,
      "max": [
        0.07861781120300293,
        0.066460266709327698,
        0.92312562465667725
      ],
      "min": [
        -0.076787471771240234,
        -0.034568734467029572,
        0.85069596767425537
      ],
      "type": "VEC3"
    },
    {
      "bufferView": 2,
      "byteOffset": 27240,
      "componentType": 5126,
      "count": 310,
      "max": [
        1,
        1,
        0.91158908605575562
      ],
      "min": [
        -1,
        -1,
        -0.33916473388671875
      ],
      "type": "VEC3"
    },
    {
      "bufferView": 3,
      "byteOffset": 15680,
      "componentType": 5126,
      "count": 310,
      "max": [
        0.9883265495300293,
        0.99886947870254517,
        0.80284643173217773,
        1
      ],
      "min": [
        -0.99841040372848511,
        -0.99999672174453735,
        -0.90949171781539917,
        1
      ],
      "type": "VEC4"
    },
    {
      "bufferView": 1,
      "byteOffset": 7840,
      "componentType": 5126,
      "count": 310,
      "max": [
        0.79625451564788818,
        0.79172313213348389
      ],
      "min": [
        0.25406605005264282,
        0.26659935712814331
      ],
      "type": "VEC2"
    },
    {
      "bufferView": 0,
      "byteOffset": 14064,
      "componentType": 5125,
      "count": 1086,
      "max": [
        309
      ],
      "min": [
        0
      ],
      "type": "SCALAR"
    },
    {
      "bufferView": 2,
      "byteOffset": 30960,
      "componentType": 5126,
      "count": 898,
      "max": [
        0.93658089637756348,
        0.87500011920928955,
        0.97717887163162231
      ],
      "min": [
        -0.93658089637756348,
        -0.87500035762786865,
        0.125
      ],
      "type": "VEC3"
    },
    {
      "bufferView": 2,
      "byteOffset": 41736,
      "componentType": 5126,
      "count": 898,
      "max": [
        1,
        1,
        0.70710676908493042
      ],
      "min": [
        -1,
        -1,
        -0.70710676908493042
      ],
      "type": "VEC3"
    },
    {
      "bufferView": 3,
      "byteOffset": 20640,
      "componentType": 5126,
      "count": 898,
      "max": [
        0.99999821186065674,
        0.95056194067001343,
        1,
        1
      ],
      "min": [
        -0.99999421834945679,
        -0.95056188106536865,
        -1,
        1
      ],
      "type": "VEC4"
    },
    {
      "bufferView": 1,
      "byteOffset": 10320,
      "componentType": 5126,
      "count": 898,
      "max": [
        0.98463761806488037,
        0.98531460762023926
      ],
      "min": [
        0.0040075704455375671,
        0.0040114112198352814
      ],
      "type": "VEC2"
    },
    {
      "bufferView": 0,
      "byteOffset": 18408,
      "componentType": 5125,
      "count": 1758,
      "max": [
        897
      ],
      "min": [
        0
      ],
      "type": "SCALAR"
    },
    {
      "bufferView": 2,
      "byteOffset": 52512,
      "componentType": 5126,
      "count": 622,
      "max": [
        0.76895338296890259,
        0.96478873491287231,
        0.80166995525360107
      ],
      "min": [
        -0.76794338226318359,
        -0.96460801362991333,
        0.5056455135345459
      ],
      "type": "VEC3"
    },
    {
      "bufferView": 2,
      "byteOffset": 59976,
      "componentType": 5126,
      "count": 622,
      "max": [
        0.9970812201499939,
        0.99998438358306885,
        0.99991798400878906
      ],
      "min": [
        -0.9970812201499939,
        -0.99998438358306885,
        -0.61025965213775635
      ],
      "type": "VEC3"
    },
    {
      "bufferView": 3,
      "byteOffset": 35008,
      "componentType": 5126,
      "count": 622,
      "max": [
        0.84122401475906372,
        0.98148101568222046,
        0.99998873472213745,
        1
      ],
      "min": [
        -0.99999988079071045,
        -0.95364665985107422,
        -0.99287581443786621,
        -1
      ],
      "type": "VEC4"
    },
    {
      "bufferView": 1,
      "byteOffset": 17504,
      "componentType": 5126,
      "count": 622,
      "max": [
        0.98141682147979736,
        0.98543936014175415
      ],
      "min": [
        0.27919360995292664,
        0.0040114112198352814
      ],
      "type": "VEC2"
    },
    {
      "bufferView": 0,
      "byteOffset": 25440,
      "componentType": 5125,
      "count": 2196,
      "max": [
        621
      ],
      "min": [
        0
      ],
      "type": "SCALAR"
    },
    {
      "bufferView": 2,
      "byteOffset": 67440,
      "componentType": 5126,
      "count": 384,
      "max": [
        0.91868889331817627,
        0.5830000638961792,
        0.95501875877380371
      ],
      "min": [
        -0.91868871450424194,
        -0.58299994468688965,
        0.47499996423721313
      ],
      "type": "VEC3"
    },
    {
      "bufferView": 2,
      "byteOffset": 72048,
      "componentType": 5126,
      "count": 384,
      "max": [
        0.80017942190170288,
        0.57735025882720947,
        0.90453958511352539
      ],
      "min": [
        -0.80017942190170288,
        -0.57735025882720947,
        -0.90453958511352539
      ],
      "type": "VEC3"
    },
    {
      "bufferView": 3,
      "byteOffset": 44960,
      "componentType": 5126,
      "count": 384,
      "max": [
        0.80017954111099243,
        0.95346528291702271,
        0.81649667024612427,
        1
      ],
      "min": [
        -0.80017954111099243,
        -0.95346528291702271,
        -0.81649672985076904,
        1
      ],
      "type": "VEC4"
    },
    {
      "bufferView": 1,
      "byteOffset": 22480,
      "componentType": 5126,
      "count": 384,
      "max": [
        0.99599242210388184,
        0.99598860740661621
      ],
      "min": [
        0.0040075704455375671,
        0.0040114112198352814
      ],
      "type": "VEC2"
    },
    {
      "bufferView": 0,
      "byteOffset": 34224,
      "componentType": 5125,
      "count": 600,
      "max": [
        383
      ],
      "min": [
        0
      ],
      "type": "SCALAR"
    }
  ],
  "asset": {
    "extras": {
      "author": "WasByWes (https://sketchfab.com/Wessel_B)",
      "license": "CC-BY-4.0 (http://creativecommons.org/licenses/by/4.0/)",
      "source": "https://sketchfab.com/3d-models/table-chairs-21051d9ecc024022ba2f15985501a09b",
      "title": "Table & Chairs"
    },
    "generator": "Sketchfab-6.46.0",
    "version": "2.0"
  },
  "bufferViews": [
    {
      "buffer": 0,
      "byteLength": 36624,
      "byteOffset": 0,
      "name": "floatBufferViews",
      "target": 34963
    },
    {
      "buffer": 0,
      "byteLength": 25552,
      "byteOffset": 36624,
      "byteStride": 8,
      "name": "floatBufferViews",
      "target": 34962
    },
    {
      "buffer": 0,
      "byteLength": 76656,
      "byteOffset": 62176,
      "byteStride": 12,
      "name": "floatBufferViews",
      "target": 34962
    },
    {
      "buffer": 0,
      "byteLength": 51104,
      "byteOffset": 138832,
      "byteStride": 16,
      "name": "floatBufferViews",
      "target": 34962
    }
  ],
  "buffers": [
    {
      "byteLength": 189936,
      "uri": "scene.bin"
    }
  ],
  "images": [
    {
      "uri": "textures/1007_baseColor.png"
    },
    {
      "uri": "textures/1007_metallicRoughness.png"
    },
    {
      "uri": "textures/1007_normal.png"
    },
    {
      "uri": "textures/1002_baseColor.png"
    },
    {
      "uri": "textures/1002_metallicRoughness.png"
    },
    {
      "uri": "textures/1002_normal.png"
    },
    {
      "uri": "textures/1003_baseColor.png"
    },
    {
      "uri": "textures/1003_metallicRoughness.png"
    },
    {
      "uri": "textures/1003_normal.png"
    },
    {
      "uri": "textures/1004_baseColor.png"
    },
    {
      "uri": "textures/1004_metallicRoughness.png"
    },
    {
      "uri": "textures/1004_normal.png"
    },
    {
      "uri": "textures/1005_baseColor.png"
    },
    {
      "uri": "textures/1005_metallicRoughness.png"
    },
    {
      "uri": "textures/1005_normal.png"
    },
    {
      "uri": "textures/1001_baseColor.png"
    },
    {
      "uri": "textures/1001_metallicRoughness.png"
    },
    {
      "uri": "textures/1001_normal.png"
    },
    {
      "uri": "textures/1006_baseColor.png"
    },
    {
      "uri": "textures/1006_metallicRoughness.png"
    },
    {
      "uri": "textures/1006_normal.png"
    }
  ],
  "materials": [
    {
      "doubleSided": true,
      "emissiveFactor": [
        0,
        0,
        0
      ],
      "name": "1007",
      "normalTexture": {
        "index": 2,
        "scale": 1,
        "texCoord": 0
      },
      "pbrMetallicRoughness": {
        "baseColorFactor": [
          1,
          1,
          1,
          1
        ],
        "baseColorTexture": {
          "index": 0,
          "texCoord": 0
        },
        "metallicFactor": 1,
        "metallicRoughnessTexture": {
          "index": 1,
          "texCoord": 0
        },
        "roughnessFactor": 1
      }
    },
    {
      "doubleSided": true,
      "emissiveFactor": [
        0,
        0,
        0
      ],
      "name": "1002",
      "normalTexture": {
        "index": 5,
        "scale": 1,
        "texCoord": 0
      },
      "pbrMetallicRoughness": {
        "baseColorFactor": [
          0.5,
          0.5,
          0.5,
          1
        ],
        "baseColorTexture": {
          "index": 3,
          "texCoord": 0
        },
        "metallicFactor": 1,
        "metallicRoughnessTexture": {
          "index": 4,
          "texCoord": 0
        },
        "roughnessFactor": 1
      }
    },
    {
      "doubleSided": true,
      "emissiveFactor": [
        0,
        0,
        0
      ],
      "name": "1003",
      "normalTexture": {
        "index": 8,
        "scale": 1,
        "texCoord": 0
      },
      "pbrMetallicRoughness": {
        "baseColorFactor": [
          0.52287879709999996,
          0.52287879709999996,
          0.52287879709999996,
          1
        ],
        "baseColorTexture": {
          "index": 6,
          "texCoord": 0
        },
        "metallicFactor": 1,
        "metallicRoughnessTexture": {
          "index": 7,
          "texCoord": 0
        },
        "roughnessFactor": 1
      }
    },
    {
      "doubleSided": true,
      "emissiveFactor": [
        0,
        0,
        0
      ],
      "name": "1004",
      "normalTexture": {
        "index": 11,
        "scale": 1,
        "texCoord": 0
      },
      "pbrMetallicRoughness": {
        "baseColorFactor": [
          0.90000000000000002,
          0.90000000000000002,
          0.90000000000000002,
          1
        ],
        "baseColorTexture": {
          "index": 9,
          "texCoord": 0
        },
        "metallicFactor": 1,
        "metallicRoughnessTexture": {
          "index": 10,
          "texCoord": 0
        },
        "roughnessFactor": 1
      }
    },
    {
      "doubleSided": true,
      "emissiveFactor": [
        0,
        0,
        0
      ],
      "name": "1005",
      "normalTexture": {
        "index": 14,
        "scale": 1,
        "texCoord": 0
      },
      "pbrMetallicRoughness": {
        "baseColorFactor": [
          1,
          1,
          1,
          1
        ],
        "baseColorTexture": {
          "index": 12,
          "texCoord": 0
        },
        "metallicFactor": 1,
        "metallicRoughnessTexture": {
          "index": 13,
          "texCoord": 0
        },
        "roughnessFactor": 1
      }
    },
    {
      "doubleSided": true,
      "emissiveFactor": [
        0,
        0,
        0
      ],
      "name": "1001",
      "normalTexture": {
        "index": 17,
        "scale": 1,
        "texCoord": 0
      },
      "pbrMetallicRoughness": {
        "baseColorFactor": [
          1,
          1,
          1,
          1
        ],
        "baseColorTexture": {
          "index": 15,
          "texCoord": 0
        },
        "metallicFactor": 1,
        "metallicRoughnessTexture": {
          "index": 16,
          "texCoord": 0
        },
        "roughnessFactor": 1
      }
    },
    {
      "doubleSided": true,
      "emissiveFactor": [
        0,
        0,
        0
      ],
      "name": "1006",
      "normalTexture": {
        "index": 20,
        "scale": 1,
        "texCoord": 0
      },
      "pbrMetallicRoughness": {
        "baseColorFactor": [
          1,
          1,
          1,
          1
        ],
        "baseColorTexture": {
          "index": 18,
          "texCoord": 0
        },
        "metallicFactor": 1,
        "metallicRoughnessTexture": {
          "index": 19,
          "texCoord": 0
        },
        "roughnessFactor": 1
      }
    }
  ],
  "meshes": [
    {
      "name": "Plane_1007_0",
      "primitives": [
        {
          "attributes": {
            "NORMAL": 1,
            "POSITION": 0,
            "TANGENT": 2,
            "TEXCOORD_0": 3
          },
          "indices": 4,
          "material": 0,
          "mode": 4
        }
      ]
    },
    {
      "name": "Plane_1002_0",
      "primitives": [
        {
          "attributes": {
            "NORMAL": 6,
            "POSITION": 5,
            "TANGENT": 7,
            "TEXCOORD_0": 8
          },
          "indices": 9,
          "material": 1,
          "mode": 4
        }
      ]
    },
    {
      "name": "Plane_1003_0",
      "primitives": [
        {
          "attributes": {
            "NORMAL": 11,
            "POSITION": 10,
            "TANGENT": 12,
            "TEXCOORD_0": 13
          },
          "indices": 14,
          "material": 2,
          "mode": 4
        }
      ]
    },
    {
      "name": "Plane_1004_0",
      "primitives": [
        {
          "attributes": {
            "NORMAL": 16,
            "POSITION": 15,
            "TANGENT": 17,
            "TEXCOORD_0": 18
          },
          "indices": 19,
          "material": 3,
          "mode": 4
        }
      ]
    },
    {
      "name": "Plane_1005_0",
      "primitives": [
        {
          "attributes": {
            "NORMAL": 21,
            "POSITION": 20,
            "TANGENT": 22,
            "TEXCOORD_0": 23
          },
          "indices": 24,
          "material": 4,
          "mode": 4
        }
      ]
    },
    {
      "name": "Plane_1001_0",
      "primitives": [
        {
          "attributes": {
            "NORMAL": 26,
            "POSITION": 25,
            "TANGENT": 27,
            "TEXCOORD_0": 28
          },
          "indices": 29,
          "material": 5,
          "mode": 4
        }
      ]
    },
    {
      "name": "Plane_1006_0",
      "primitives": [
        {
          "attributes": {
            "NORMAL": 31,
            "POSITION": 30,
            "TANGENT": 32,
            "TEXCOORD_0": 33
          },
          "indices": 34,
          "material": 6,
          "mode": 4
        }
      ]
    }
  ],
  "nodes": [
    {
      "children": [
        1
      ],
      "name": "RootNode (gltf orientation matrix)",
      "rotation": [
        -0.70710678118654746,
        -0,
        -0,
        0.70710678118654757
      ]
    },
    {
      "children": [
        2
      ],
      "name": "RootNode (model correction matrix)"
    },
    {
      "children": [
        3
      ],
      "matrix": [
        1,
        0,
        0,
        0,
        0,
        0,
        1,
        0,
        0,
        -1,
        0,
        0,
        0,
        0,
        0,
        1
      ],
      "name": "d392ef4b4ae44663a5575007e8146155.fbx"
    },
    {
      "children": [
        4
      ],
      "name": "RootNode"
    },
    {
      "children": [
        5,
        6,
        7,
        8,
        9,
        10,
        11
      ],
      "matrix": [
        300.00003051757812,
        0,
        0,
        0,
        0,
        -6.5168271756732565e-05,
        -399.99999999999471,
        0,
        0,
        399.99999999999471,
        -6.5168271756732565e-05,
        0,
        0,
        0,
        0,
        1
      ],
      "name": "Plane"
    },
    {
      "mesh": 0,
      "name": "Plane_1007_0"
    },
    {
      "mesh": 1,
      "name": "Plane_1002_0"
    },
    {
      "mesh": 2,
      "name": "Plane_1003_0"
    },
    {
      "mesh": 3,
      "name": "Plane_1004_0"
    },
    {
      "mesh": 4,
      "name": "Plane_1005_0"
    },
    {
      "mesh": 5,
      "name": "Plane_1001_0"
    },
    {
      "mesh": 6,
      "name": "Plane_1006_0"
    }
  ],
  "samplers": [
    {
      "magFilter": 9729,
      "minFilter": 9987,
      "wrapS": 10497,
      "wrapT": 10497
    }
  ],
  "scene": 0,
  "scenes": [
    {
      "name": "OSG_Scene",
      "nodes": [
        0
      ]
    }
  ],
  "textures": [
    {
      "sampler": 0,
      "source": 0
    },
    {
      "sampler": 0,
      "source": 1
    },
    {
      "sampler": 0,
      "source": 2
    },
    {
      "sampler": 0,
      "source": 3
    },
    {
      "sampler": 0,
      "source": 4
    },
    {
      "sampler": 0,
      "source": 5
    },
    {
      "sampler": 0,
      "source": 6
    },
    {
      "sampler": 0,
      "source": 7
    },
    {
      "sampler": 0,
      "source": 8
    },
    {
      "sampler": 0,
      "source": 9
    },
    {
      "sampler": 0,
      "source": 10
    },
    {
      "sampler": 0,
      "source": 11
    },
    {
      "sampler": 0,
      "source": 12
    },
    {
      "sampler": 0,
      "source": 13
    },
    {
      "sampler": 0,
      "source": 14
    },
    {
      "sampler": 0,
      "source": 15
    },
    {
      "sampler": 0,
      "source": 16
    },
    {
      "sampler": 0,
      "source": 17
    },
    {
      "sampler": 0,
      "source": 18
    },
    {
      "sampler": 0,
      "source": 19
    },
    {
      "sampler": 0,
      "source": 20
    }
  ]
}

